<svg width="24" height="24" viewBox="0 0 24 24" fill="none" xmlns="http://www.w3.org/2000/svg">
<g clip-path="url(#clip0_1754_3948)">
<path fill-rule="evenodd" clip-rule="evenodd" d="M10.4658 0.240295H0.240234V10.4659H5.51113C6.45293 8.2377 8.23773 6.4528 10.4658 5.5109V0.240295ZM0.240234 12.511H4.91353C4.82633 13.0229 4.78083 13.549 4.78083 14.0857C4.78083 17.9408 7.12513 21.2482 10.4658 22.6605V22.7366H0.240234V12.511ZM22.7365 10.4659H22.6611C21.249 7.1249 17.9413 4.7804 14.0861 4.7804C13.5492 4.7804 13.0229 4.8259 12.5109 4.9132V0.240295H22.7365V10.4659ZM9.89363 14.0856C9.89363 11.7702 11.7707 9.8931 14.0861 9.8931C16.4016 9.8931 18.2786 11.7702 18.2786 14.0856C18.2786 16.4011 16.4016 18.2781 14.0861 18.2781C11.7707 18.2781 9.89363 16.4011 9.89363 14.0856ZM14.0861 6.8255C10.0764 6.8255 6.82593 10.076 6.82593 14.0856C6.82593 18.0954 10.0764 21.3458 14.0861 21.3458C15.5359 21.3458 16.8865 20.9208 18.02 20.1887L21.5911 23.7597L23.7602 21.5906L20.1891 18.0195C20.9213 16.886 21.3463 15.5355 21.3463 14.0856C21.3463 10.0759 18.0958 6.8255 14.0861 6.8255Z" fill="#ED1C24"/>
</g>
<defs>
<clipPath id="clip0_1754_3948">
<rect width="24" height="24" fill="white"/>
</clipPath>
</defs>
</svg>
