<?xml version="1.0" encoding="utf-8"?>
<!-- Generator: Adobe Illustrator 27.2.0, SVG Export Plug-In . SVG Version: 6.00 Build 0)  -->
<svg version="1.1" id="Capa_1" xmlns="http://www.w3.org/2000/svg" xmlns:xlink="http://www.w3.org/1999/xlink" x="0px" y="0px"
	 viewBox="0 0 32 32" style="enable-background:new 0 0 32 32;" xml:space="preserve">
<style type="text/css">
	.st0{fill:#FFFFFF;}
</style>
<g>
	<g>
		<path class="st0" d="M15.95,31.1c-3.91,0-7.82,0-11.74,0c-1.07,0-1.35-0.28-1.24-1.33c0.42-4.06,0.85-8.12,1.28-12.18
			c0.32-3.05,0.64-6.09,0.96-9.14c0.08-0.73,0.36-1,1.11-1.01c1.02-0.01,2.04,0,3.07,0c1.02,0,1.02,0,1.04-1
			c0.03-2.44,1.64-4.6,3.96-5.29c3.58-1.07,7.06,1.5,7.17,5.31c0.03,0.98,0.03,0.98,1.02,0.98c1,0,2.01-0.01,3.01,0
			c0.86,0.01,1.15,0.3,1.23,1.15c0.37,3.63,0.76,7.26,1.14,10.9c0.36,3.46,0.73,6.91,1.09,10.37c0.09,0.91-0.24,1.25-1.18,1.25
			C23.89,31.11,19.92,31.1,15.95,31.1z M15.98,29.31c2.2,0,4.4,0,6.6,0c1.38,0,2.75,0,4.13,0c0.23,0,0.48,0.05,0.43-0.35
			c-0.22-1.91-0.41-3.82-0.61-5.74c-0.34-3.2-0.67-6.4-1.01-9.6c-0.14-1.31-0.28-2.61-0.41-3.92c-0.03-0.34-0.16-0.46-0.51-0.45
			c-0.84,0.03-1.69,0.03-2.53,0c-0.44-0.02-0.54,0.16-0.51,0.55c0.03,0.39,0.01,0.79,0,1.18c-0.01,0.75-0.32,1.14-0.89,1.14
			c-0.58,0-0.91-0.4-0.92-1.12c0-0.45-0.01-0.9,0-1.36c0.01-0.27-0.08-0.38-0.37-0.38c-2.26,0.01-4.52,0.01-6.78,0
			c-0.28,0-0.38,0.1-0.38,0.38c0.01,0.51,0.02,1.02,0,1.53c-0.02,0.6-0.37,0.95-0.9,0.94c-0.52-0.01-0.86-0.38-0.9-0.96
			c-0.04-0.62,0.28-1.47-0.14-1.79c-0.39-0.31-1.2-0.09-1.83-0.09c-1.59,0-1.55,0-1.7,1.61c-0.26,2.79-0.57,5.58-0.86,8.37
			c-0.33,3.16-0.67,6.32-1.02,9.48c-0.05,0.47,0.08,0.6,0.56,0.59C8.94,29.31,12.46,29.31,15.98,29.31z M15.97,7.43
			c0.86,0,1.73,0,2.59,0c1.22,0,1.22,0,1.17-1.21c-0.08-2.12-2.16-3.82-4.25-3.47c-2.03,0.33-3.24,1.86-3.27,4.03
			c-0.01,0.5,0.1,0.69,0.64,0.67C13.89,7.4,14.93,7.43,15.97,7.43z"/>
	</g>
</g>
</svg>
