<svg width="16" height="16" viewBox="0 0 16 16" fill="none" xmlns="http://www.w3.org/2000/svg">
<mask id="path-1-inside-1_1419_2235" fill="white">
<path fill-rule="evenodd" clip-rule="evenodd" d="M7.54743 10.2834L4.32545 10.6299L4.96153 11.2504H9.52291L7.83184 10.2522L7.54743 10.2834ZM7.54743 7.71302L11.9848 6.52864C11.9848 6.52864 12.6312 6.48212 13.2725 5.02886L7.54743 6.90624L3.09455 8.35942C3.09455 8.35942 2.71183 8.48353 2.56186 8.58698C2.56186 8.58698 2.45841 8.6491 2.45841 8.7938C2.45841 8.7938 2.46874 8.90245 2.54632 8.98011L2.73769 9.17147L5.16835 8.54045C5.16835 8.54045 5.01838 8.34389 5.31832 8.30257L7.54743 7.71302ZM7.54743 10.0299C7.55256 10.0816 7.59395 10.1283 7.59395 10.1283L7.54743 10.1333L4.17028 10.5161L3.52893 9.91619L7.54736 9.19726L10.9813 8.58698C10.4177 9.69384 9.27983 9.69383 9.27983 9.69383L7.86283 9.8748C7.62495 9.88 7.55776 9.94198 7.54736 10.0042L7.54743 10.0299ZM7.54743 8.11634L12.2279 6.9321C11.6745 8.18366 10.5626 8.22498 10.5626 8.22498L7.54743 8.83527L6.55962 9.03689C6.08378 9.04729 6.29067 9.29038 6.29067 9.29038L3.41003 9.78175L2.8722 9.30591L7.54743 8.11634ZM14.0897 2.9136C14.0897 2.9136 13.8672 3.57048 13.7276 3.90661C13.7276 3.90661 13.5569 4.43931 12.8743 4.65134L7.54743 6.53391L2.92905 8.1578C2.92905 8.1578 2.33437 8.36989 2.23605 8.61818C2.23605 8.61818 2.09641 8.90252 2.47401 9.22326L4.70298 11.2505H3.82901L2.03443 9.49214C2.03443 9.49214 1.63104 9.16114 1.59998 8.69049V8.59225C1.60518 8.56125 1.60518 8.53026 1.61551 8.494C1.61551 8.494 1.69309 7.97676 2.46881 7.66136L14.0897 2.9136ZM2.78941 11.5815H1.63104V11.8659H1.89472V12.7296H1.63104V13.0244H2.78941V12.7296H2.505V12.4555H3.35837V12.7296H3.07909V13.0244H4.22207V12.7296H3.94799V11.8659H4.22207V11.5815H3.07389V11.8659H3.35837V12.1503H2.505V11.8659H2.78941V11.5815ZM13.1846 12.2487L12.9623 11.9125L12.9363 11.8815L12.7347 12.2487H13.1846ZM13.4225 11.5815L14.1155 12.7296H14.4V13.0244H13.1535V12.7296H13.4328L13.3138 12.5589H12.5589L12.4657 12.7296H12.7398V13.0244H11.7779V12.7296H12.0728L12.5485 11.8659H12.2279V11.5815H13.4225ZM10.7435 12.7141C11.0176 12.6831 11.178 12.5796 11.178 12.3107C11.178 12.0004 10.997 11.9021 10.7435 11.8762C10.697 11.871 10.6504 11.871 10.5988 11.871H10.3092V12.7244H10.5419C10.6143 12.7244 10.6815 12.7193 10.7435 12.7141ZM10.9297 11.5815C11.4056 11.5815 11.7625 11.8038 11.7625 12.3107C11.7625 12.895 11.4263 13.0141 10.7435 13.0244H9.44546V12.7296H9.72474V11.8659H9.44546V11.5815H10.9297ZM5.43737 12.7813C5.70632 12.7761 5.91834 12.5641 5.91834 12.3055C5.91834 12.0314 5.70112 11.8246 5.43737 11.8246H5.43217C5.16842 11.8246 4.9564 12.0314 4.9564 12.3004C4.9564 12.5537 5.15809 12.7813 5.42704 12.7813H5.43737ZM5.43737 11.509H5.4529C6.13037 11.509 6.57515 11.7625 6.57515 12.2849C6.57515 12.7658 6.16656 13.0864 5.43737 13.0864H5.41671C4.70818 13.0864 4.28406 12.8123 4.28406 12.2952C4.28406 11.7987 4.70298 11.509 5.43737 11.509ZM7.81118 11.5815H6.66827V11.8659H6.94235V12.7296H6.66827V13.0244H7.57849V12.7296H7.29401V11.9901L8.09566 13.0243H8.98002V11.8659H9.26956V11.5814H8.32828V11.8659H8.62309V12.6261L7.81118 11.5815Z"/>
</mask>
<path fill-rule="evenodd" clip-rule="evenodd" d="M7.54743 10.2834L4.32545 10.6299L4.96153 11.2504H9.52291L7.83184 10.2522L7.54743 10.2834ZM7.54743 7.71302L11.9848 6.52864C11.9848 6.52864 12.6312 6.48212 13.2725 5.02886L7.54743 6.90624L3.09455 8.35942C3.09455 8.35942 2.71183 8.48353 2.56186 8.58698C2.56186 8.58698 2.45841 8.6491 2.45841 8.7938C2.45841 8.7938 2.46874 8.90245 2.54632 8.98011L2.73769 9.17147L5.16835 8.54045C5.16835 8.54045 5.01838 8.34389 5.31832 8.30257L7.54743 7.71302ZM7.54743 10.0299C7.55256 10.0816 7.59395 10.1283 7.59395 10.1283L7.54743 10.1333L4.17028 10.5161L3.52893 9.91619L7.54736 9.19726L10.9813 8.58698C10.4177 9.69384 9.27983 9.69383 9.27983 9.69383L7.86283 9.8748C7.62495 9.88 7.55776 9.94198 7.54736 10.0042L7.54743 10.0299ZM7.54743 8.11634L12.2279 6.9321C11.6745 8.18366 10.5626 8.22498 10.5626 8.22498L7.54743 8.83527L6.55962 9.03689C6.08378 9.04729 6.29067 9.29038 6.29067 9.29038L3.41003 9.78175L2.8722 9.30591L7.54743 8.11634ZM14.0897 2.9136C14.0897 2.9136 13.8672 3.57048 13.7276 3.90661C13.7276 3.90661 13.5569 4.43931 12.8743 4.65134L7.54743 6.53391L2.92905 8.1578C2.92905 8.1578 2.33437 8.36989 2.23605 8.61818C2.23605 8.61818 2.09641 8.90252 2.47401 9.22326L4.70298 11.2505H3.82901L2.03443 9.49214C2.03443 9.49214 1.63104 9.16114 1.59998 8.69049V8.59225C1.60518 8.56125 1.60518 8.53026 1.61551 8.494C1.61551 8.494 1.69309 7.97676 2.46881 7.66136L14.0897 2.9136ZM2.78941 11.5815H1.63104V11.8659H1.89472V12.7296H1.63104V13.0244H2.78941V12.7296H2.505V12.4555H3.35837V12.7296H3.07909V13.0244H4.22207V12.7296H3.94799V11.8659H4.22207V11.5815H3.07389V11.8659H3.35837V12.1503H2.505V11.8659H2.78941V11.5815ZM13.1846 12.2487L12.9623 11.9125L12.9363 11.8815L12.7347 12.2487H13.1846ZM13.4225 11.5815L14.1155 12.7296H14.4V13.0244H13.1535V12.7296H13.4328L13.3138 12.5589H12.5589L12.4657 12.7296H12.7398V13.0244H11.7779V12.7296H12.0728L12.5485 11.8659H12.2279V11.5815H13.4225ZM10.7435 12.7141C11.0176 12.6831 11.178 12.5796 11.178 12.3107C11.178 12.0004 10.997 11.9021 10.7435 11.8762C10.697 11.871 10.6504 11.871 10.5988 11.871H10.3092V12.7244H10.5419C10.6143 12.7244 10.6815 12.7193 10.7435 12.7141ZM10.9297 11.5815C11.4056 11.5815 11.7625 11.8038 11.7625 12.3107C11.7625 12.895 11.4263 13.0141 10.7435 13.0244H9.44546V12.7296H9.72474V11.8659H9.44546V11.5815H10.9297ZM5.43737 12.7813C5.70632 12.7761 5.91834 12.5641 5.91834 12.3055C5.91834 12.0314 5.70112 11.8246 5.43737 11.8246H5.43217C5.16842 11.8246 4.9564 12.0314 4.9564 12.3004C4.9564 12.5537 5.15809 12.7813 5.42704 12.7813H5.43737ZM5.43737 11.509H5.4529C6.13037 11.509 6.57515 11.7625 6.57515 12.2849C6.57515 12.7658 6.16656 13.0864 5.43737 13.0864H5.41671C4.70818 13.0864 4.28406 12.8123 4.28406 12.2952C4.28406 11.7987 4.70298 11.509 5.43737 11.509ZM7.81118 11.5815H6.66827V11.8659H6.94235V12.7296H6.66827V13.0244H7.57849V12.7296H7.29401V11.9901L8.09566 13.0243H8.98002V11.8659H9.26956V11.5814H8.32828V11.8659H8.62309V12.6261L7.81118 11.5815Z" fill="black" stroke="black" stroke-width="8.30065" mask="url(#path-1-inside-1_1419_2235)"/>
</svg>
