<svg width="220" height="100" viewBox="0 0 220 100" fill="none" xmlns="http://www.w3.org/2000/svg">
<path fill-rule="evenodd" clip-rule="evenodd" d="M10 53.3089H21.6682L26.7003 70.9532H36.9753V53.3914H47.1586V70.9991H57.4336L61.6224 51.8973H87.7177L67.3602 72.5664L39.3217 81.7232L18.5426 74.4638L10 53.3089Z" fill="white"/>
<path fill-rule="evenodd" clip-rule="evenodd" d="M10 49.8167L30.1833 28.3685L58.4418 18.2768L80.6966 25.8845L90.7883 49.9267L79.0834 50.0458L71.5307 29.8075H60.6325V49.6975H50.1925V29.7434H39.725L35.5729 49.6975C35.5729 49.6975 10 49.6975 10 49.8167Z" fill="white"/>
<path d="M87.5893 72.1631H85.6553L83.7946 68.5518H87.4427C87.6993 68.5518 87.901 68.341 88.0476 67.901C88.1943 67.461 88.1393 67.2319 87.8735 67.2319H83.483L81.8881 72.1448H80.4766L82.5572 65.7195L88.4417 65.7378C88.9825 65.7378 89.34 65.967 89.505 66.4161C89.6608 66.8286 89.6516 67.3236 89.4592 67.901C89.2758 68.4876 88.9642 68.9826 88.5426 69.3859C88.0843 69.835 87.5801 70.055 87.0394 70.055H86.4986L87.5985 72.154L87.5893 72.1631Z" fill="white"/>
<path d="M96.1047 72.1906H94.6931L95.3531 70.1466H91.6226L92.1084 68.6343H95.8389L96.1322 67.7452C96.2422 67.4152 96.1872 67.2594 95.9855 67.2594H91.98C91.7784 67.2502 91.6317 67.4152 91.5309 67.736L90.0919 72.1723H88.6711L90.1102 67.7268C90.2843 67.1861 90.596 66.7186 91.0451 66.3336C91.4942 65.9487 91.9617 65.747 92.4658 65.747H96.4713C96.9846 65.7562 97.3329 65.9578 97.5254 66.352C97.7179 66.7461 97.7271 67.2044 97.5437 67.7452L96.1047 72.1815V72.1906Z" fill="white"/>
<path d="M103.373 72.209H98.6802C98.1302 72.1998 97.7269 71.9981 97.4703 71.6132C97.2137 71.2282 97.177 70.7424 97.3603 70.1558L98.1211 67.8002C98.3136 67.2227 98.6619 66.7369 99.1752 66.352C99.6884 65.967 100.22 65.7745 100.77 65.7745H105.463L104.977 67.2869H100.284C99.9084 67.2777 99.6609 67.4519 99.5418 67.8093L98.781 70.165C98.671 70.5224 98.7994 70.7058 99.1752 70.7058H103.868L103.382 72.2181L103.373 72.209Z" fill="white"/>
<path d="M105.372 72.209H103.96L106.041 65.7837H107.461L105.372 72.209Z" fill="white"/>
<path d="M112.438 72.2273H111.027L108.781 67.8918L107.379 72.2181L105.967 72.2089L108.048 65.7928H109.468L111.714 70.1008L113.107 65.802H114.528L112.438 72.2273Z" fill="white"/>
<path d="M119.707 72.2456H115.014C114.464 72.2365 114.061 72.0348 113.795 71.6498C113.538 71.2649 113.502 70.7791 113.685 70.1925L114.455 67.8368C114.647 67.2502 114.996 66.7736 115.5 66.3886C116.013 66.0036 116.545 65.8112 117.095 65.8112H121.788L121.302 67.3235H116.609C116.233 67.3144 115.986 67.4885 115.866 67.846L115.106 70.2016C114.986 70.5591 115.115 70.7424 115.491 70.7424H118.772L119.084 69.7892H117.159L117.645 68.2859H120.981L119.698 72.2548L119.707 72.2456Z" fill="white"/>
<path d="M133.501 70.2475C133.309 70.8249 132.961 71.3107 132.456 71.6957C131.952 72.0807 131.421 72.2731 130.871 72.2731H126.187L127.498 68.2126H128.909L128.084 70.7699H131.366C131.723 70.7699 131.971 70.6049 132.081 70.2383L132.841 67.8918C132.961 67.5344 132.832 67.3602 132.466 67.3511H127.773L128.259 65.8387L132.942 65.857C133.492 65.857 133.896 66.0495 134.152 66.4345C134.409 66.8194 134.445 67.3052 134.253 67.8918L133.492 70.2475H133.501Z" fill="white"/>
<path d="M141.494 67.3785L136.444 67.3602L136.123 68.3226L140.862 68.3409L140.367 69.835L135.646 69.8258L135.325 70.7882L140.376 70.7974L139.89 72.3006L133.428 72.2823L135.509 65.8661L141.989 65.8753L141.494 67.3785Z" fill="white"/>
<path d="M149.588 65.8937L144.418 72.3098H143.217L142.2 65.8753L143.776 65.8845L144.482 70.2841L148.011 65.8937H149.588Z" fill="white"/>
<path d="M155.976 67.4152L150.926 67.3969L150.605 68.3593L155.335 68.3776L154.849 69.8717L150.128 69.8625L149.807 70.8249L154.858 70.8341L154.372 72.3373L147.91 72.3189L149.991 65.8936L156.471 65.912L155.976 67.4152Z" fill="white"/>
<path d="M161.045 72.3556L154.977 72.3373L157.058 65.9211H158.469L156.874 70.8432L161.531 70.8524L161.045 72.3556Z" fill="white"/>
<path d="M169.817 70.3391C169.624 70.9257 169.276 71.4024 168.763 71.7965C168.259 72.1815 167.727 72.3739 167.177 72.3739H163.612C163.062 72.3648 162.658 72.1723 162.402 71.7782C162.145 71.3932 162.108 70.9074 162.292 70.3208L163.062 67.9651C163.254 67.3877 163.602 66.9019 164.107 66.5169C164.62 66.132 165.142 65.9395 165.701 65.9395H169.258C169.808 65.9486 170.211 66.1411 170.468 66.5353C170.733 66.9202 170.761 67.406 170.578 67.9926L169.817 70.3483V70.3391ZM168.405 70.3391L169.166 67.9835C169.285 67.626 169.157 67.4519 168.772 67.4427H165.216C164.84 67.4427 164.592 67.6077 164.473 67.9651L163.712 70.3208C163.593 70.6783 163.731 70.8616 164.107 70.8616H167.663C168.039 70.8707 168.286 70.6966 168.405 70.3391Z" fill="white"/>
<path d="M178.726 68.1485C178.543 68.7259 178.231 69.2117 177.8 69.6242C177.323 70.0733 176.829 70.3116 176.306 70.3024H171.842L171.164 72.3739H169.743L171.824 65.9486L177.699 65.967C178.222 65.967 178.57 66.1961 178.753 66.6636C178.918 67.0761 178.909 67.571 178.717 68.1485M177.305 68.1485C177.452 67.6993 177.415 67.4702 177.223 67.4702H172.768L172.328 68.7992H176.783C176.984 68.8084 177.159 68.5884 177.305 68.1485Z" fill="white"/>
<path d="M185.802 72.4198L184.39 72.4106L185.664 68.5059L181.897 72.3098L180.614 68.4876L179.34 72.4015H177.928L180.018 65.9762H181.494L182.75 69.6975L186.416 65.9945H187.892L185.802 72.4198Z" fill="white"/>
<path d="M194.464 67.516L189.405 67.4977L189.102 68.4693L193.823 68.4784L193.337 69.9725L188.607 69.9633L188.296 70.9257L193.346 70.9349L192.86 72.4381L186.398 72.4198L188.479 65.9945L194.959 66.0128L194.464 67.516Z" fill="white"/>
<path d="M199.936 72.4564H198.515L196.279 68.121L194.877 72.4473L193.456 72.4381L195.546 66.022H196.957L199.203 70.33L200.605 66.0311H202.026L199.936 72.4564Z" fill="white"/>
<path d="M209.01 67.5527L206.269 67.5435L204.674 72.4656H203.263L204.858 67.5435L202.117 67.5343L202.612 66.0311L209.496 66.0495L209.01 67.5527Z" fill="white"/>
<path d="M107.131 46.4945H116.434C118.53 46.4945 120.215 48.1813 120.215 50.2658V58.7626C120.215 60.8563 118.521 62.543 116.434 62.543H107.131C105.045 62.543 103.35 60.8482 103.35 58.7626V50.2658C103.35 48.1823 105.043 46.4945 107.131 46.4945ZM113.492 59.4918C115.401 59.4918 116.944 57.9529 116.944 56.0495V53.0431C116.944 51.1305 115.392 49.5916 113.492 49.5916H109.899C107.994 49.5916 106.457 51.1453 106.457 53.0431V56.0495C106.457 57.951 107.998 59.4918 109.899 59.4918H113.492Z" fill="#ED1C24" stroke="#ED1C24" stroke-width="1.64167"/>
<path d="M75.6097 46.5037H84.9131C86.9966 46.5037 88.6844 48.1964 88.6844 50.2841V58.7626C88.6844 60.8585 86.9977 62.5431 84.9131 62.5431H75.6097C73.5241 62.5431 71.8293 60.8482 71.8293 58.7626V50.2841C71.8293 48.1904 73.523 46.5037 75.6097 46.5037ZM81.9709 59.4918C83.8724 59.4918 85.4131 57.951 85.4131 56.0495V53.0431C85.4131 51.1342 83.8743 49.5916 81.9709 49.5916H78.3686C76.4634 49.5916 74.9264 51.1453 74.9264 53.0431V56.0495C74.9264 57.951 76.4671 59.4918 78.3686 59.4918H81.9709Z" fill="#ED1C24" stroke="#ED1C24" stroke-width="1.64167"/>
<path d="M157.69 46.4762H166.993C169.081 46.4762 170.774 48.164 170.774 50.2475V58.7534C170.774 60.8472 169.08 62.5339 166.993 62.5339H157.69C155.604 62.5339 153.909 60.8391 153.909 58.7534V50.2475C153.909 48.164 155.602 46.4762 157.69 46.4762ZM164.051 59.4918C165.96 59.4918 167.502 57.9529 167.502 56.0495V52.9973C167.502 51.0865 165.962 49.5458 164.051 49.5458H160.458C158.553 49.5458 157.016 51.0994 157.016 52.9973V56.0495C157.016 57.951 158.556 59.4918 160.458 59.4918H164.051Z" fill="#ED1C24" stroke="#ED1C24" stroke-width="1.64167"/>
<path d="M148.579 59.116H149.4V58.2951V46.4762H152.534V62.5339H136.15C134.531 62.5339 133.213 61.2227 133.213 59.5967V46.4762H136.585V58.2951V59.116H137.406H140.257H141.077V58.2951V46.467H144.504V58.2951V59.116H145.325H148.579Z" fill="#ED1C24" stroke="#ED1C24" stroke-width="1.64167"/>
<path d="M54.0552 62.2954H50.9489V46.4851H67.3233C68.9414 46.4851 70.2605 47.8042 70.2605 49.4223V62.3412H66.8884V51.1272V50.3063H66.0676H63.2078H62.387V51.1272V62.5428H58.9599V51.1272V50.3063H58.1391H54.876H54.0552V51.1272V62.2954Z" fill="#ED1C24" stroke="#ED1C24" stroke-width="1.64167"/>
<path d="M186.839 56.2168L186.839 56.2171L186.839 56.2174L186.838 56.2178L186.838 56.218L186.213 56.7965L186.766 57.35L190.173 62.5247H185.391C185.256 61.2002 184.793 60.1429 184.123 59.3148C183.329 58.3348 182.29 57.73 181.298 57.3554C180.307 56.9808 179.328 56.8226 178.607 56.7562C178.244 56.7228 177.94 56.7121 177.724 56.7099C177.616 56.7088 177.53 56.7098 177.469 56.7111C177.438 56.7118 177.414 56.7126 177.396 56.7132L177.375 56.7141L177.368 56.7144L177.366 56.7145L177.365 56.7146C177.365 56.7146 177.364 56.7146 177.406 57.5344L177.364 56.7146L176.585 56.7542V57.5344V62.5339H172.174L172.282 46.4775L173.276 46.4791L177.438 46.4854C180.571 46.4899 184 46.4945 185.179 46.4945C186.999 46.4945 189.133 48.4608 189.133 51.2741C189.133 52.6474 188.578 53.8778 187.986 54.7938C187.693 55.247 187.4 55.6094 187.181 55.8568C187.072 55.9801 186.983 56.0739 186.922 56.1351C186.892 56.1657 186.869 56.188 186.855 56.2018L186.84 56.2159L186.839 56.2168ZM177.135 53.5564V54.3772H177.956H184.409C185.766 54.3772 186.879 53.2794 186.879 51.9065C186.879 50.5395 185.772 49.4266 184.409 49.4266H177.956H177.135V50.2475V53.5564Z" fill="#ED1C24" stroke="#ED1C24" stroke-width="1.64167"/>
<path d="M195.632 56.6911V62.5339H191.407V46.4762H195.632V51.4115V53.2085L196.99 52.032L203.404 46.4762H208.265L202.463 53.5491L202.072 54.0259L202.421 54.5343L207.643 62.1398H201.922L197.09 56.1745L195.632 54.3735V56.6911Z" fill="#ED1C24" stroke="#ED1C24" stroke-width="1.64167"/>
<path d="M93.9919 50.6416V49.8208H93.1711H88.8079L89.3735 46.4762H102.198L101.626 49.8208H98.304H97.4832V50.6416V62.4789H93.9919V50.6416Z" fill="#ED1C24" stroke="#ED1C24" stroke-width="1.64167"/>
</svg>
