<svg width="19" height="18" viewBox="0 0 19 18" fill="none" xmlns="http://www.w3.org/2000/svg">
<g clip-path="url(#clip0_1431_20107)">
<path d="M2.06641 8.2665C2.06641 10.0169 2.76176 11.6957 3.9995 12.9334C5.23724 14.1711 6.91598 14.8665 8.66641 14.8665C10.4168 14.8665 12.0956 14.1711 13.3333 12.9334C14.5711 11.6957 15.2664 10.0169 15.2664 8.2665C15.2664 6.51608 14.5711 4.83734 13.3333 3.5996C12.0956 2.36186 10.4168 1.6665 8.66641 1.6665C6.91598 1.6665 5.23724 2.36186 3.9995 3.5996C2.76176 4.83734 2.06641 6.51608 2.06641 8.2665Z" stroke="black" stroke-width="1.65"/>
<path d="M13.332 12.9333L16.7318 16.3331" stroke="black" stroke-width="1.65"/>
</g>
<defs>
<clipPath id="clip0_1431_20107">
<rect width="17.6" height="17.6" fill="white" transform="translate(0.599609 0.199951)"/>
</clipPath>
</defs>
</svg>
