<svg width="16" height="16" viewBox="0 0 16 16" fill="none" xmlns="http://www.w3.org/2000/svg">
<path d="M7.95738 13.8562L2.37051 9.99504C2.62996 9.85579 2.96877 9.69784 3.35534 9.57413C4.24702 9.28878 5.33105 9.20234 6.30554 9.85794C6.30601 9.85825 6.30647 9.85856 6.30694 9.85888L9.32141 11.9264L9.55442 12.0862L9.79046 11.9309L10.1584 11.6888L10.6759 11.3483L10.1685 10.993L2.48832 5.61509C2.54264 5.59157 2.5998 5.56639 2.65978 5.53946C3.26544 5.26752 4.15886 4.81714 5.32995 4.09758L5.33007 4.09751C6.38393 3.44952 7.12094 2.90532 7.59783 2.51958C7.78374 2.3692 7.93009 2.24293 8.04023 2.14401L13.6295 6.00515C13.37 6.1445 13.0312 6.30259 12.6445 6.42639C11.7529 6.71188 10.669 6.79831 9.69454 6.14214C9.69408 6.14183 9.69362 6.14152 9.69316 6.14121L6.67865 4.0723L6.44561 3.91236L6.2095 4.06772L5.84155 4.30983L5.32435 4.65014L5.83131 5.00553L13.5073 10.3865C13.4532 10.41 13.3962 10.4351 13.3365 10.462C12.7319 10.7339 11.8396 11.1843 10.6686 11.9038L10.6686 11.9038C9.61545 12.5511 8.87816 13.0949 8.40083 13.4804C8.21446 13.6309 8.06775 13.7572 7.95738 13.8562Z" fill="black" stroke="black" stroke-width="0.841131"/>
</svg>
