<svg width="73" height="72" viewBox="0 0 73 72" fill="none" xmlns="http://www.w3.org/2000/svg">
<path d="M15.5002 46.752C12.1772 45.3012 9.49197 42.6961 7.94128 39.4185C6.39059 36.141 6.07934 32.4127 7.06511 28.9234C8.05087 25.434 10.2669 22.4198 13.3034 20.4381C16.3399 18.4564 19.9913 17.6415 23.5822 18.144C24.6677 14.1522 27.2131 10.7139 30.714 8.51012C34.2148 6.30638 38.4157 5.49805 42.4844 6.24529C46.5531 6.99253 50.1927 9.24081 52.682 12.5447C55.1714 15.8486 56.3289 19.967 55.9252 24.084C58.5701 24.3987 61.0351 25.5845 62.9319 27.4545C64.8286 29.3245 66.0493 31.7724 66.4016 34.4126C66.754 37.0528 66.2179 39.7351 64.8778 42.037C63.5378 44.339 61.47 46.1297 59.0002 47.127" stroke="#B2B2B2" stroke-width="4.5"/>
<path d="M23 48L32 39V66" stroke="#B2B2B2" stroke-width="4.5"/>
<path d="M44 33V60L53 51" stroke="#B2B2B2" stroke-width="4.5"/>
</svg>
