<svg width="16" height="16" viewBox="0 0 16 16" fill="none" xmlns="http://www.w3.org/2000/svg">
<mask id="path-1-inside-1_1419_1604" fill="white">
<path d="M7.99998 13.6814C4.86734 13.6814 2.31857 11.1326 2.31857 8.00001C2.31857 4.86737 4.86734 2.3186 7.99998 2.3186C11.1326 2.3186 13.6814 4.85615 13.6814 8.00001C13.6814 11.1326 11.1326 13.6814 7.99998 13.6814ZM7.99998 1.60001C4.46313 1.60001 1.59998 4.46316 1.59998 8.00001C1.59998 11.5368 4.46313 14.4 7.99998 14.4C11.5368 14.4 14.4 11.5368 14.4 8.00001C14.4 4.46316 11.5368 1.60001 7.99998 1.60001Z"/>
<path d="M10.1221 9.22368C10.0322 9.38087 9.84137 9.43701 9.68417 9.34718L8.89821 8.89806V8.52754L9.22382 8.33666L9.99856 8.78578C10.1558 8.87561 10.2119 9.06648 10.1221 9.22368ZM8.37049 8.21315L7.99996 8.42648L7.62944 8.21315V7.78648L7.99996 7.57315L8.37049 7.78648V8.21315ZM7.68558 5.86648C7.67435 5.68683 7.80909 5.54087 7.98874 5.52964C8.16839 5.51841 8.31435 5.65315 8.32558 5.8328C8.32558 5.84403 8.32558 5.85525 8.32558 5.86648V6.76473L7.99996 6.95561L7.68558 6.76473V5.86648ZM7.09049 8.88683L6.30453 9.33596C6.15856 9.43701 5.95646 9.3921 5.86663 9.24613C5.76558 9.10017 5.81049 8.89806 5.95645 8.80824C5.96768 8.79701 5.97891 8.79701 6.00137 8.78578L6.78733 8.33666L7.10172 8.52754L7.09049 8.88683ZM12.6484 10.5823L11.7165 9.49315C11.7052 9.48192 11.694 9.47069 11.6715 9.45947C11.6266 9.43701 11.5705 9.43701 11.5256 9.45947C11.3796 9.52683 11.2112 9.52683 11.0652 9.43701C10.9417 9.36964 10.8519 9.24613 10.8294 9.10017C10.7621 8.74087 10.5375 8.42648 10.2231 8.24683L9.80768 7.99982L12.1768 6.62999L11.8849 6.12473L9.22382 7.66297L8.90944 7.48333V7.10157L11.5705 5.56332L11.2786 5.05806L8.90944 6.42789V5.95631C8.90944 5.58578 8.75224 5.23771 8.47154 5.00192C8.25821 4.82227 8.23575 4.50789 8.4154 4.30578C8.43786 4.2721 8.47154 4.23841 8.51645 4.21596C8.56137 4.18227 8.58382 4.13736 8.58382 4.08122C8.58382 4.05876 8.58382 4.04753 8.5726 4.02508L8.10102 2.67771C8.07856 2.62157 8.02242 2.59911 7.97751 2.61034C7.94382 2.62157 7.92137 2.64403 7.91014 2.67771L7.43856 4.02508C7.43856 4.03631 7.42733 4.05876 7.42733 4.08122C7.42733 4.13736 7.44979 4.18227 7.4947 4.21596C7.71926 4.37315 7.7754 4.67631 7.61821 4.90087C7.59575 4.93455 7.56207 4.96824 7.52838 5.00192C7.24768 5.23771 7.09049 5.58578 7.09049 5.95631V6.42789L4.7326 5.06929L4.44067 5.57455L7.09049 7.10157V7.4721L6.7761 7.66297L4.11505 6.12473L3.82312 6.62999L6.19225 7.99982L5.77681 8.23561C5.46242 8.41525 5.23786 8.72964 5.17049 9.08894C5.14803 9.2349 5.05821 9.35841 4.9347 9.42578C4.78874 9.50438 4.62031 9.51561 4.47435 9.44824C4.42944 9.42578 4.3733 9.42578 4.32838 9.44824C4.31716 9.45947 4.2947 9.47069 4.28347 9.48192L3.35154 10.571C3.31786 10.616 3.31786 10.6721 3.36277 10.7058C3.38523 10.7282 3.41891 10.7395 3.4526 10.7282L4.84488 10.47C4.91224 10.4588 4.96838 10.4026 4.96838 10.324C4.97961 10.1668 5.06944 10.0209 5.2154 9.93104C5.33891 9.86368 5.4961 9.85245 5.63084 9.89736C5.97891 10.0209 6.36067 9.98718 6.67505 9.79631L7.09049 9.56052V12.2889H7.67435V9.22368L7.98874 9.04403L8.30312 9.22368V12.2889H8.88698V9.57175L9.30242 9.80754C9.61681 9.98718 9.99856 10.0321 10.3466 9.90859C10.4814 9.86368 10.6386 9.8749 10.7621 9.94227C10.908 10.0209 10.9979 10.1668 11.0091 10.3353C11.0091 10.3914 11.0428 10.4363 11.0877 10.4588C11.0989 10.47 11.1214 10.47 11.1326 10.4812L12.5361 10.7395C12.581 10.7507 12.6147 10.7282 12.6372 10.6946C12.6821 10.6609 12.6821 10.616 12.6484 10.5823Z"/>
</mask>
<path d="M7.99998 13.6814C4.86734 13.6814 2.31857 11.1326 2.31857 8.00001C2.31857 4.86737 4.86734 2.3186 7.99998 2.3186C11.1326 2.3186 13.6814 4.85615 13.6814 8.00001C13.6814 11.1326 11.1326 13.6814 7.99998 13.6814ZM7.99998 1.60001C4.46313 1.60001 1.59998 4.46316 1.59998 8.00001C1.59998 11.5368 4.46313 14.4 7.99998 14.4C11.5368 14.4 14.4 11.5368 14.4 8.00001C14.4 4.46316 11.5368 1.60001 7.99998 1.60001Z" fill="black"/>
<path d="M10.1221 9.22368C10.0322 9.38087 9.84137 9.43701 9.68417 9.34718L8.89821 8.89806V8.52754L9.22382 8.33666L9.99856 8.78578C10.1558 8.87561 10.2119 9.06648 10.1221 9.22368ZM8.37049 8.21315L7.99996 8.42648L7.62944 8.21315V7.78648L7.99996 7.57315L8.37049 7.78648V8.21315ZM7.68558 5.86648C7.67435 5.68683 7.80909 5.54087 7.98874 5.52964C8.16839 5.51841 8.31435 5.65315 8.32558 5.8328C8.32558 5.84403 8.32558 5.85525 8.32558 5.86648V6.76473L7.99996 6.95561L7.68558 6.76473V5.86648ZM7.09049 8.88683L6.30453 9.33596C6.15856 9.43701 5.95646 9.3921 5.86663 9.24613C5.76558 9.10017 5.81049 8.89806 5.95645 8.80824C5.96768 8.79701 5.97891 8.79701 6.00137 8.78578L6.78733 8.33666L7.10172 8.52754L7.09049 8.88683ZM12.6484 10.5823L11.7165 9.49315C11.7052 9.48192 11.694 9.47069 11.6715 9.45947C11.6266 9.43701 11.5705 9.43701 11.5256 9.45947C11.3796 9.52683 11.2112 9.52683 11.0652 9.43701C10.9417 9.36964 10.8519 9.24613 10.8294 9.10017C10.7621 8.74087 10.5375 8.42648 10.2231 8.24683L9.80768 7.99982L12.1768 6.62999L11.8849 6.12473L9.22382 7.66297L8.90944 7.48333V7.10157L11.5705 5.56332L11.2786 5.05806L8.90944 6.42789V5.95631C8.90944 5.58578 8.75224 5.23771 8.47154 5.00192C8.25821 4.82227 8.23575 4.50789 8.4154 4.30578C8.43786 4.2721 8.47154 4.23841 8.51645 4.21596C8.56137 4.18227 8.58382 4.13736 8.58382 4.08122C8.58382 4.05876 8.58382 4.04753 8.5726 4.02508L8.10102 2.67771C8.07856 2.62157 8.02242 2.59911 7.97751 2.61034C7.94382 2.62157 7.92137 2.64403 7.91014 2.67771L7.43856 4.02508C7.43856 4.03631 7.42733 4.05876 7.42733 4.08122C7.42733 4.13736 7.44979 4.18227 7.4947 4.21596C7.71926 4.37315 7.7754 4.67631 7.61821 4.90087C7.59575 4.93455 7.56207 4.96824 7.52838 5.00192C7.24768 5.23771 7.09049 5.58578 7.09049 5.95631V6.42789L4.7326 5.06929L4.44067 5.57455L7.09049 7.10157V7.4721L6.7761 7.66297L4.11505 6.12473L3.82312 6.62999L6.19225 7.99982L5.77681 8.23561C5.46242 8.41525 5.23786 8.72964 5.17049 9.08894C5.14803 9.2349 5.05821 9.35841 4.9347 9.42578C4.78874 9.50438 4.62031 9.51561 4.47435 9.44824C4.42944 9.42578 4.3733 9.42578 4.32838 9.44824C4.31716 9.45947 4.2947 9.47069 4.28347 9.48192L3.35154 10.571C3.31786 10.616 3.31786 10.6721 3.36277 10.7058C3.38523 10.7282 3.41891 10.7395 3.4526 10.7282L4.84488 10.47C4.91224 10.4588 4.96838 10.4026 4.96838 10.324C4.97961 10.1668 5.06944 10.0209 5.2154 9.93104C5.33891 9.86368 5.4961 9.85245 5.63084 9.89736C5.97891 10.0209 6.36067 9.98718 6.67505 9.79631L7.09049 9.56052V12.2889H7.67435V9.22368L7.98874 9.04403L8.30312 9.22368V12.2889H8.88698V9.57175L9.30242 9.80754C9.61681 9.98718 9.99856 10.0321 10.3466 9.90859C10.4814 9.86368 10.6386 9.8749 10.7621 9.94227C10.908 10.0209 10.9979 10.1668 11.0091 10.3353C11.0091 10.3914 11.0428 10.4363 11.0877 10.4588C11.0989 10.47 11.1214 10.47 11.1326 10.4812L12.5361 10.7395C12.581 10.7507 12.6147 10.7282 12.6372 10.6946C12.6821 10.6609 12.6821 10.616 12.6484 10.5823Z" fill="black"/>
<path d="M7.99998 13.6814C4.86734 13.6814 2.31857 11.1326 2.31857 8.00001C2.31857 4.86737 4.86734 2.3186 7.99998 2.3186C11.1326 2.3186 13.6814 4.85615 13.6814 8.00001C13.6814 11.1326 11.1326 13.6814 7.99998 13.6814ZM7.99998 1.60001C4.46313 1.60001 1.59998 4.46316 1.59998 8.00001C1.59998 11.5368 4.46313 14.4 7.99998 14.4C11.5368 14.4 14.4 11.5368 14.4 8.00001C14.4 4.46316 11.5368 1.60001 7.99998 1.60001Z" stroke="black" stroke-width="2" mask="url(#path-1-inside-1_1419_1604)"/>
<path d="M10.1221 9.22368C10.0322 9.38087 9.84137 9.43701 9.68417 9.34718L8.89821 8.89806V8.52754L9.22382 8.33666L9.99856 8.78578C10.1558 8.87561 10.2119 9.06648 10.1221 9.22368ZM8.37049 8.21315L7.99996 8.42648L7.62944 8.21315V7.78648L7.99996 7.57315L8.37049 7.78648V8.21315ZM7.68558 5.86648C7.67435 5.68683 7.80909 5.54087 7.98874 5.52964C8.16839 5.51841 8.31435 5.65315 8.32558 5.8328C8.32558 5.84403 8.32558 5.85525 8.32558 5.86648V6.76473L7.99996 6.95561L7.68558 6.76473V5.86648ZM7.09049 8.88683L6.30453 9.33596C6.15856 9.43701 5.95646 9.3921 5.86663 9.24613C5.76558 9.10017 5.81049 8.89806 5.95645 8.80824C5.96768 8.79701 5.97891 8.79701 6.00137 8.78578L6.78733 8.33666L7.10172 8.52754L7.09049 8.88683ZM12.6484 10.5823L11.7165 9.49315C11.7052 9.48192 11.694 9.47069 11.6715 9.45947C11.6266 9.43701 11.5705 9.43701 11.5256 9.45947C11.3796 9.52683 11.2112 9.52683 11.0652 9.43701C10.9417 9.36964 10.8519 9.24613 10.8294 9.10017C10.7621 8.74087 10.5375 8.42648 10.2231 8.24683L9.80768 7.99982L12.1768 6.62999L11.8849 6.12473L9.22382 7.66297L8.90944 7.48333V7.10157L11.5705 5.56332L11.2786 5.05806L8.90944 6.42789V5.95631C8.90944 5.58578 8.75224 5.23771 8.47154 5.00192C8.25821 4.82227 8.23575 4.50789 8.4154 4.30578C8.43786 4.2721 8.47154 4.23841 8.51645 4.21596C8.56137 4.18227 8.58382 4.13736 8.58382 4.08122C8.58382 4.05876 8.58382 4.04753 8.5726 4.02508L8.10102 2.67771C8.07856 2.62157 8.02242 2.59911 7.97751 2.61034C7.94382 2.62157 7.92137 2.64403 7.91014 2.67771L7.43856 4.02508C7.43856 4.03631 7.42733 4.05876 7.42733 4.08122C7.42733 4.13736 7.44979 4.18227 7.4947 4.21596C7.71926 4.37315 7.7754 4.67631 7.61821 4.90087C7.59575 4.93455 7.56207 4.96824 7.52838 5.00192C7.24768 5.23771 7.09049 5.58578 7.09049 5.95631V6.42789L4.7326 5.06929L4.44067 5.57455L7.09049 7.10157V7.4721L6.7761 7.66297L4.11505 6.12473L3.82312 6.62999L6.19225 7.99982L5.77681 8.23561C5.46242 8.41525 5.23786 8.72964 5.17049 9.08894C5.14803 9.2349 5.05821 9.35841 4.9347 9.42578C4.78874 9.50438 4.62031 9.51561 4.47435 9.44824C4.42944 9.42578 4.3733 9.42578 4.32838 9.44824C4.31716 9.45947 4.2947 9.47069 4.28347 9.48192L3.35154 10.571C3.31786 10.616 3.31786 10.6721 3.36277 10.7058C3.38523 10.7282 3.41891 10.7395 3.4526 10.7282L4.84488 10.47C4.91224 10.4588 4.96838 10.4026 4.96838 10.324C4.97961 10.1668 5.06944 10.0209 5.2154 9.93104C5.33891 9.86368 5.4961 9.85245 5.63084 9.89736C5.97891 10.0209 6.36067 9.98718 6.67505 9.79631L7.09049 9.56052V12.2889H7.67435V9.22368L7.98874 9.04403L8.30312 9.22368V12.2889H8.88698V9.57175L9.30242 9.80754C9.61681 9.98718 9.99856 10.0321 10.3466 9.90859C10.4814 9.86368 10.6386 9.8749 10.7621 9.94227C10.908 10.0209 10.9979 10.1668 11.0091 10.3353C11.0091 10.3914 11.0428 10.4363 11.0877 10.4588C11.0989 10.47 11.1214 10.47 11.1326 10.4812L12.5361 10.7395C12.581 10.7507 12.6147 10.7282 12.6372 10.6946C12.6821 10.6609 12.6821 10.616 12.6484 10.5823Z" stroke="black" stroke-width="2" mask="url(#path-1-inside-1_1419_1604)"/>
</svg>
